#!OML:ASF X:\für Bonn\!DataBase\2005_08_12_Daniel\c3d\Daniel.ASF
:FULLY-SPECIFIED
:DEGREES
243
root -12.4865 16.0584 -11.6337 -7.33356 45.1762 -719.561
lowerback 43.2328 -6.49045 4.8138
upperback 9.67609 -5.36463 -1.74973
thorax -9.96311 -2.14992 -2.04368
lowerneck -9.82195 -4.78539 -6.94968
upperneck -4.11449 -5.61655 3.66685
head 0.692515 -2.66649 2.1468
rclavicle 1.26626e-013 -3.81667e-014
rhumerus -30.2205 3.48463 -89.7066
rradius 48.6182
rwrist 4.72098
rhand -27.6741 21.4386
rfingers 7.12502
rthumb -1.07117 -8.53844
lclavicle 1.26626e-013 -3.81667e-014
lhumerus -8.0922 16.4749 91.045
lradius 39.6674
lwrist -22.365
lhand -18.7749 -3.39279
lfingers 7.12502
lthumb 7.52246 26.4534
rfemur -26.2827 5.14409 24.7446
rtibia 64.232
rfoot -25.1251 6.92317
rtoes -4.3946
lfemur -16.3787 5.36315 -16.865
ltibia 84.7995
lfoot -16.4741 -13.0339
ltoes -8.12598
244
root -12.4326 16.0542 -11.5665 -7.38474 45.3811 -719.426
lowerback 43.3842 -6.39792 4.78154
upperback 9.65226 -5.2579 -1.80594
thorax -10.0309 -2.09722 -2.1293
lowerneck -9.91267 -4.69742 -6.81784
upperneck -4.01955 -5.50575 3.50453
head 0.721962 -2.61431 2.07242
rclavicle 8.44835e-014 2.38542e-015
rhumerus -30.0229 3.50212 -89.7044
rradius 48.8575
rwrist 4.61097
rhand -27.8249 21.371
rfingers 7.12502
rthumb -1.21683 -8.60525
lclavicle 8.44835e-014 2.38542e-015
lhumerus -8.29248 16.5775 90.8999
lradius 39.7094
lwrist -22.5192
lhand -18.901 -3.24556
lfingers 7.12502
lthumb 7.40072 26.605
rfemur -25.8643 5.07005 24.7102
rtibia 64.4298
rfoot -25.3481 6.85299
rtoes -4.39711
lfemur -17.5066 5.33037 -17.0281
ltibia 84.7995
lfoot -17.1636 -12.8576
ltoes -8.64184
245
root -12.3782 16.049 -11.4982 -7.44556 45.5925 -719.289
lowerback 43.5408 -6.29907 4.7033
upperback 9.627 -5.16059 -1.84257
thorax -10.0973 -2.04885 -2.16661
lowerneck -9.96358 -4.57962 -6.69456
upperneck -3.92907 -5.35729 3.33853
head 0.741773 -2.54362 2.00113
rclavicle -8.74653e-015 2.98177e-014
rhumerus -29.8345 3.60436 -89.6821
rradius 49.1032
rwrist 4.42453
rhand -27.9194 21.2703
rfingers 7.12502
rthumb -1.30803 -8.70543
lclavicle -8.74653e-015 2.98177e-014
lhumerus -8.52068 16.7314 90.7387
lradius 39.7541
lwrist -22.6164
lhand -19.0633 -3.13811
lfingers 7.12502
lthumb 7.24406 26.7179
rfemur -25.4263 4.95707 24.6766
rtibia 64.6218
rfoot -25.5494 6.76192
rtoes -4.45857
lfemur -18.6168 5.31528 -17.2109
ltibia 84.7368
lfoot -17.8979 -12.7349
ltoes -9.30006
246
root -12.3228 16.0457 -11.4302 -7.52759 45.8261 -719.172
lowerback 43.6795 -6.21087 4.66103
upperback 9.6176 -5.0609 -1.87941
thorax -10.1423 -1.99897 -2.22492
lowerneck -9.98704 -4.47323 -6.55909
upperneck -3.84936 -5.22733 3.16988
head 0.754278 -2.48258 1.9267
rclavicle 8.01102e-014 4.37326e-015
rhumerus -29.6041 3.73712 -89.6446
rradius 49.3242
rwrist 4.20992
rhand -28.0861 21.1225
rfingers 7.12502
rthumb -1.46906 -8.85219
lclavicle 8.01102e-014 4.37326e-015
lhumerus -8.74797 16.8625 90.58
lradius 39.8019
lwrist -22.7303
lhand -19.27 -3.01785
lfingers 7.12502
lthumb 7.04449 26.8449
rfemur -24.9599 4.83332 24.6492
rtibia 64.7926
rfoot -25.7451 6.70282
rtoes -4.47148
lfemur -19.7126 5.28783 -17.3978
ltibia 84.5996
lfoot -18.5662 -12.673
ltoes -9.79468
